#!OML:ASF E:\Style4\Style4.ASF
:FULLY-SPECIFIED
:DEGREES
1379
root 0.371984 17.9121 -0.936543 0.718203 -4.33204 1.81729
lowerback 3.4891 3.14777 -0.467171
upperback -0.496663 4.16288 -0.584045
thorax -2.452 2.07843 -0.569061
lowerneck -2.41874 -11.4049 -7.4924
upperneck 11.7334 -15.1566 2.20251
head 4.66447 -7.67116 1.03769
rclavicle -3.71758e-014 -5.06901e-015
rhumerus 41.4553 -13.9458 -77.7678
rradius 79.4781
rwrist -55.532
rhand -23.9714 29.1637
rfingers 7.12502
rthumb 2.50494 -0.80131
lclavicle -3.71758e-014 -5.06901e-015
lhumerus -45.4839 -42.9965 105.38
lradius 70.7987
lwrist 1.72503
lhand -11.0949 20.0068
lfingers 7.12502
lthumb 14.929 49.4488
rfemur -9.92977 6.39474 15.2724
rtibia 26.738
rfoot -16.6061 -11.8883
rtoes -13.6217
lfemur -7.72258 -1.53803 -22.2296
ltibia 25.3767
lfoot -18.9017 11.7224
ltoes -15.1772
1380
root 0.37861 17.91 -0.93637 0.702362 -4.28692 1.84222
lowerback 3.57245 3.07664 -0.54498
upperback -0.493171 4.06404 -0.574666
thorax -2.50167 2.03008 -0.515807
lowerneck -2.35323 -11.4509 -7.48577
upperneck 11.7114 -15.2147 2.13019
head 4.64378 -7.70379 1.01647
rclavicle 2.70999e-014 -4.37326e-015
rhumerus 40.7928 -15.5508 -78.7644
rradius 79.482
rwrist -55.8383
rhand -24.4058 29.8276
rfingers 7.12502
rthumb 2.08544 -0.141947
lclavicle 2.70999e-014 -4.37326e-015
lhumerus -45.4385 -42.8838 105.247
lradius 70.8888
lwrist 1.75297
lhand -11.1473 20.0743
lfingers 7.12502
lthumb 14.8786 49.52
rfemur -9.95706 6.35229 15.2197
rtibia 26.8196
rfoot -16.5804 -11.9302
rtoes -13.5653
lfemur -7.7835 -1.58956 -22.2923
ltibia 25.5128
lfoot -18.9322 11.7976
ltoes -15.6427
1381
root 0.384202 17.9066 -0.935196 0.684464 -4.25148 1.89714
lowerback 3.59946 3.01004 -0.693774
upperback -0.465497 3.96915 -0.545003
thorax -2.50086 1.98495 -0.398208
lowerneck -2.35232 -11.46 -7.56246
upperneck 11.7894 -15.2217 2.11163
head 4.67275 -7.71148 1.01833
rclavicle -6.98231e-015 3.97569e-016
rhumerus 39.9981 -17.1116 -79.5831
rradius 79.5933
rwrist -56.3303
rhand -24.5979 30.8307
rfingers 7.12502
rthumb 1.89995 0.859431
lclavicle -6.98231e-015 3.97569e-016
lhumerus -45.3809 -42.6855 105.118
lradius 70.9662
lwrist 1.7634
lhand -11.2216 20.0407
lfingers 7.12502
lthumb 14.807 49.4917
rfemur -9.98132 6.31788 15.1378
rtibia 26.9085
rfoot -16.5687 -11.9648
rtoes -13.7299
lfemur -7.81717 -1.63628 -22.3769
ltibia 25.6028
lfoot -18.9994 11.762
ltoes -15.2964
1382
root 0.390323 17.905 -0.933101 0.692529 -4.21889 1.81057
lowerback 3.61125 2.94419 -0.712738
upperback -0.471572 3.88252 -0.454748
thorax -2.52122 1.9426 -0.29135
lowerneck -2.29045 -11.4813 -7.65961
upperneck 11.8943 -15.2424 2.03712
head 4.69811 -7.73045 1.00865
rclavicle -5.45415e-014 -1.98785e-015
rhumerus 39.1223 -18.6468 -80.1981
rradius 79.6814
rwrist -56.7645
rhand -24.5589 30.4749
rfingers 7.12502
rthumb 1.93759 0.503935
lclavicle -5.45415e-014 -1.98785e-015
lhumerus -45.4507 -42.4419 105.085
lradius 71.0517
lwrist 1.73544
lhand -11.3158 19.954
lfingers 7.12502
lthumb 14.7162 49.4117
rfemur -10.0036 6.30017 15.2157
rtibia 26.9832
rfoot -16.6192 -12.0016
rtoes -13.7945
lfemur -7.85033 -1.64454 -22.3074
ltibia 25.6628
lfoot -18.9884 11.8032
ltoes -15.7131
1383
root 0.396263 17.9034 -0.930932 0.663674 -4.21041 1.78024
lowerback 3.65709 2.86631 -0.7719
upperback -0.468563 3.777 -0.394205
thorax -2.55152 1.89117 -0.192957
lowerneck -2.22309 -11.4896 -7.69889
upperneck 11.9642 -15.2441 1.92335
head 4.70324 -7.73976 0.982649
rclavicle -1.16289e-014 -3.47873e-015
rhumerus 38.2016 -20.1126 -80.7094
rradius 79.7215
rwrist -57.2349
rhand -24.6592 29.5385
rfingers 7.12502
rthumb 1.84075 -0.433299
lclavicle -1.16289e-014 -3.47873e-015
lhumerus -45.4685 -42.2063 104.982
lradius 71.1019
lwrist 1.74072
lhand -11.4029 19.9889
lfingers 7.12502
lthumb 14.6324 49.4527
rfemur -9.99598 6.24833 15.23
rtibia 27.0568
rfoot -16.6414 -11.9809
rtoes -13.6457
lfemur -7.83695 -1.66033 -22.2923
ltibia 25.7129
lfoot -19.1121 11.709
ltoes -15.0991
1384
root 0.402201 17.9001 -0.927077 0.631631 -4.23026 1.80653
lowerback 3.66887 2.78662 -0.885832
upperback -0.448501 3.6667 -0.346723
thorax -2.5473 1.83805 -0.0745999
lowerneck -2.15339 -11.4661 -7.7482
upperneck 11.9906 -15.2055 1.84462
head 4.69606 -7.7278 0.972747
rclavicle 2.72087e-014 -6.75868e-015
rhumerus 37.1866 -21.494 -81.1386
rradius 79.8235
rwrist -57.7388
rhand -24.8142 29.0225
rfingers 7.12502
rthumb 1.691 -0.950578
lclavicle 2.72087e-014 -6.75868e-015
lhumerus -45.403 -42.0233 104.834
lradius 71.1115
lwrist 1.79448
lhand -11.4165 20.0819
lfingers 7.12502
lthumb 14.6192 49.5466
rfemur -9.99062 6.1957 15.1799
rtibia 27.1191
rfoot -16.7412 -11.9002
rtoes -13.7978
lfemur -7.83022 -1.70837 -22.341
ltibia 25.7963
lfoot -19.3257 11.5814
ltoes -14.1283
1385
root 0.407611 17.8959 -0.925037 0.617681 -4.23689 1.8047
lowerback 3.68857 2.70453 -0.978743
upperback -0.429852 3.55434 -0.287069
thorax -2.54783 1.78367 0.0442872
lowerneck -2.16458 -11.4354 -7.78847
upperneck 12.0905 -15.1507 1.74593
head 4.72186 -7.70796 0.949266
rclavicle 5.28022e-015 -6.55989e-015
rhumerus 36.1779 -22.8468 -81.4775
rradius 79.9056
rwrist -58.1504
rhand -24.9345 28.9253
rfingers 7.12502
rthumb 1.5748 -1.04865
lclavicle 5.28022e-015 -6.55989e-015
lhumerus -45.3156 -41.8296 104.691
lradius 71.0982
lwrist 1.90273
lhand -11.4453 20.1657
lfingers 7.12502
lthumb 14.5915 49.6325
rfemur -10.0103 6.17825 15.1614
rtibia 27.1962
rfoot -16.8146 -11.8784
rtoes -14.2403
lfemur -7.8488 -1.75961 -22.3663
ltibia 25.8843
lfoot -19.4002 11.6053
ltoes -14.1204
1386
root 0.412858 17.8931 -0.923445 0.618573 -4.2574 1.77649
lowerback 3.72535 2.64161 -1.04154
upperback -0.42651 3.46871 -0.222386
thorax -2.57195 1.74231 0.148729
lowerneck -2.21496 -11.3994 -7.86281
upperneck 12.265 -15.0905 1.69251
head 4.78312 -7.68469 0.93892
rclavicle 6.18096e-016 -7.95139e-016
rhumerus 35.1368 -24.2086 -81.7163
rradius 79.891
rwrist -58.4284
rhand -24.8985 29.0669
rfingers 7.12502
rthumb 1.60961 -0.90678
lclavicle 6.18096e-016 -7.95139e-016
lhumerus -45.278 -41.5939 104.593
lradius 71.0836
lwrist 1.88159
lhand -11.4058 20.2138
lfingers 7.12502
lthumb 14.6296 49.6777
rfemur -10.0503 6.17016 15.1739
rtibia 27.2658
rfoot -16.8238 -11.8855
rtoes -14.3586
lfemur -7.9069 -1.72773 -22.3698
ltibia 26.0108
lfoot -19.3303 11.7703
ltoes -14.9275
1387
root 0.418097 17.89 -0.920648 0.609468 -4.32977 1.74999
lowerback 3.7496 2.62778 -1.11444
upperback -0.403345 3.44878 -0.140197
thorax -2.57089 1.73387 0.274055
lowerneck -2.19368 -11.3916 -8.02558
upperneck 12.351 -15.0735 1.69912
head 4.81888 -7.68346 0.962542
rclavicle 9.18137e-015 -5.96354e-016
rhumerus 33.9932 -25.5714 -81.738
rradius 79.9047
rwrist -58.7539
rhand -24.9437 29.0914
rfingers 7.12502
rthumb 1.56596 -0.882558
lclavicle 9.18137e-015 -5.96354e-016
lhumerus -45.2698 -41.4094 104.561
lradius 71.1124
lwrist 1.75928
lhand -11.3676 20.2478
lfingers 7.12502
lthumb 14.6663 49.7091
rfemur -10.079 6.22024 15.1879
rtibia 27.3304
rfoot -16.9062 -11.8328
rtoes -14.1687
lfemur -7.96543 -1.68627 -22.3659
ltibia 26.1681
lfoot -19.3788 11.8067
ltoes -14.9789
1388
root 0.42279 17.888 -0.919253 0.564669 -4.41203 1.7231
lowerback 3.8311 2.61961 -1.16119
upperback -0.378373 3.43599 -0.0884106
thorax -2.5967 1.72842 0.350497
lowerneck -2.13243 -11.3777 -8.05616
upperneck 12.3998 -15.0492 1.62511
head 4.81965 -7.67761 0.949086
rclavicle -1.62134e-015 1.78906e-015
rhumerus 32.7716 -26.8925 -81.7084
rradius 79.9065
rwrist -59.1069
rhand -25.0915 29.0947
rfingers 7.12502
rthumb 1.4232 -0.880261
lclavicle -1.62134e-015 1.78906e-015
lhumerus -45.2687 -41.3011 104.499
lradius 71.1334
lwrist 1.65289
lhand -11.3744 20.1763
lfingers 7.12502
lthumb 14.6598 49.6381
rfemur -10.0751 6.28938 15.2066
rtibia 27.3925
rfoot -16.9554 -11.7818
rtoes -14.1706
lfemur -8.01254 -1.63949 -22.3539
ltibia 26.3393
lfoot -19.4234 11.8523
ltoes -15.0699
1389
root 0.426272 17.8857 -0.918216 0.551358 -4.45801 1.72504
lowerback 3.88471 2.5628 -1.25575
upperback -0.363033 3.35625 -0.0422171
thorax -2.61793 1.69028 0.453197
lowerneck -2.17573 -11.3142 -7.98985
upperneck 12.5405 -14.9427 1.43454
head 4.84575 -7.63303 0.88466
rclavicle 6.12878e-014 3.18055e-015
rhumerus 31.5276 -28.0742 -81.6313
rradius 79.7993
rwrist -59.4778
rhand -25.1292 29.0733
rfingers 7.12502
rthumb 1.38683 -0.901889
lclavicle 6.12878e-014 3.18055e-015
lhumerus -45.2293 -41.1137 104.352
lradius 71.1331
lwrist 1.62303
lhand -11.4003 20.0953
lfingers 7.12502
lthumb 14.6348 49.5589
rfemur -10.1211 6.28739 15.194
rtibia 27.4764
rfoot -16.8967 -11.794
rtoes -14.4638
lfemur -8.08687 -1.63022 -22.3687
ltibia 26.4814
lfoot -19.4713 11.9244
ltoes -15.3568
1390
root 0.428598 17.8829 -0.915473 0.561338 -4.48674 1.66961
lowerback 3.88726 2.49086 -1.33081
upperback -0.349253 3.25887 0.0373895
thorax -2.61221 1.64329 0.58295
lowerneck -2.20343 -11.2282 -7.92217
upperneck 12.6807 -14.8047 1.22587
head 4.8665 -7.57418 0.817954
rclavicle 3.5657e-015 -3.97569e-016
rhumerus 30.2458 -29.1625 -81.5026
rradius 79.6451
rwrist -59.7025
rhand -25.2251 28.8699
rfingers 7.12502
rthumb 1.29414 -1.10591
lclavicle 3.5657e-015 -3.97569e-016
lhumerus -45.1549 -40.8794 104.197
lradius 71.1063
lwrist 1.59024
lhand -11.3096 20.1073
lfingers 7.12502
lthumb 14.7222 49.5646
rfemur -10.1796 6.27578 15.2489
rtibia 27.5789
rfoot -16.9147 -11.8018
rtoes -14.5214
lfemur -8.14229 -1.64268 -22.315
ltibia 26.6018
lfoot -19.5422 11.932
ltoes -15.4551
1391
root 0.429885 17.8791 -0.912807 0.568109 -4.51119 1.69707
lowerback 3.88847 2.42674 -1.48002
upperback -0.328424 3.16774 0.0887859
thorax -2.60057 1.60016 0.725005
lowerneck -2.19877 -11.1445 -7.957
upperneck 12.75 -14.6827 1.16362
head 4.87972 -7.5198 0.811259
rclavicle -3.4719e-014 -4.96962e-015
rhumerus 28.8213 -30.1653 -81.1967
rradius 79.5711
rwrist -59.9538
rhand -25.5122 28.7134
rfingers 7.12502
rthumb 1.01688 -1.26389
lclavicle -3.4719e-014 -4.96962e-015
lhumerus -45.0662 -40.6206 104.023
lradius 71.0628
lwrist 1.41754
lhand -11.1816 20.1346
lfingers 7.12502
lthumb 14.8455 49.5828
rfemur -10.2573 6.19332 15.2101
rtibia 27.7012
rfoot -16.9669 -11.7394
rtoes -14.4509
lfemur -8.19165 -1.61485 -22.3513
ltibia 26.7098
lfoot -19.5792 11.9378
ltoes -15.5405
